<svg xmlns="http://www.w3.org/2000/svg" width="232" height="64" viewBox="0 0 232 64" fill="none">
  <title>Okanai</title>
  <!-- An open O and an upward arrow: your earnings, moving forward. -->
  <path d="M47 26a20 20 0 1 1-9-13" stroke="#315de8" stroke-width="10" stroke-linecap="round"/>
  <path d="m39 24 14-14m-11 0h11v11" stroke="#eea9c6" stroke-width="6" stroke-linecap="round" stroke-linejoin="round"/>
  <!-- Outlined lettering keeps the wordmark independent of installed fonts. -->
  <g stroke="#182b51" stroke-width="4.5" stroke-linecap="round" stroke-linejoin="round">
    <circle cx="94" cy="36" r="10"/>
    <path d="M116 18v28m17-20-17 12m6-4 12 12"/>
    <circle cx="154" cy="36" r="10"/>
    <path d="M164 26v20m14 0V26m0 10c0-14 20-14 20 0v10m12-20v20"/>
  </g>
  <circle cx="210" cy="18" r="2.75" fill="#182b51"/>
  <circle cx="224" cy="44" r="3" fill="#315de8"/>
</svg>
